<mxfile host="app.diagrams.net" modified="2022-04-15T05:31:57.076Z" agent="5.0 (X11)" etag="X6-lxHTUIgsuLv-2RLdV" version="15.5.4" type="github">
  <diagram id="kgpKYQtTHZ0yAKxKKP6v" name="Page-1">
    <mxGraphModel dx="2214" dy="1240" grid="1" gridSize="10" guides="1" tooltips="1" connect="1" arrows="1" fold="1" page="1" pageScale="1" pageWidth="1700" pageHeight="1100" math="0" shadow="0">
      <root>
        <mxCell id="0" />
        <mxCell id="1" parent="0" />
        <mxCell id="mohswmjoA9oFrbhRQOha-30" value="&lt;b&gt;sd&lt;/b&gt; Request Course" style="shape=umlFrame;whiteSpace=wrap;html=1;width=120;height=30;movable=1;resizable=1;allowArrows=1;collapsible=0;container=1;" vertex="1" parent="1">
          <mxGeometry x="20" y="20" width="1180" height="1400" as="geometry" />
        </mxCell>
        <mxCell id="mohswmjoA9oFrbhRQOha-107" value="&lt;b&gt;loop&lt;/b&gt;" style="shape=umlFrame;whiteSpace=wrap;html=1;width=40;height=30;" vertex="1" parent="1">
          <mxGeometry x="780" y="1260" width="250" height="80" as="geometry" />
        </mxCell>
        <mxCell id="mohswmjoA9oFrbhRQOha-104" value="&lt;b&gt;loop&lt;/b&gt;" style="shape=umlFrame;whiteSpace=wrap;html=1;width=40;height=30;" vertex="1" parent="1">
          <mxGeometry x="780" y="1160" width="250" height="80" as="geometry" />
        </mxCell>
        <mxCell id="mohswmjoA9oFrbhRQOha-41" value="&lt;b&gt;opt&lt;/b&gt;" style="shape=umlFrame;whiteSpace=wrap;html=1;width=30;height=30;" vertex="1" parent="1">
          <mxGeometry x="40" y="200" width="750" height="530" as="geometry" />
        </mxCell>
        <mxCell id="mohswmjoA9oFrbhRQOha-66" value="" style="group" vertex="1" connectable="0" parent="1">
          <mxGeometry x="60" y="330" width="610" height="240" as="geometry" />
        </mxCell>
        <mxCell id="mohswmjoA9oFrbhRQOha-62" value="" style="group" vertex="1" connectable="0" parent="mohswmjoA9oFrbhRQOha-66">
          <mxGeometry width="610" height="240" as="geometry" />
        </mxCell>
        <mxCell id="mohswmjoA9oFrbhRQOha-45" value="&lt;b&gt;alt&lt;/b&gt;" style="shape=umlFrame;whiteSpace=wrap;html=1;width=30;height=30;" vertex="1" parent="mohswmjoA9oFrbhRQOha-62">
          <mxGeometry width="610" height="239.99999999999997" as="geometry" />
        </mxCell>
        <mxCell id="mohswmjoA9oFrbhRQOha-53" value="" style="line;strokeWidth=1;fillColor=none;align=left;verticalAlign=middle;spacingTop=-1;spacingLeft=3;spacingRight=3;rotatable=0;labelPosition=right;points=[];portConstraint=eastwest;dashed=1;dashPattern=1 1;" vertex="1" parent="mohswmjoA9oFrbhRQOha-62">
          <mxGeometry y="94.0258482523444" width="610" height="11.294117647058822" as="geometry" />
        </mxCell>
        <mxCell id="mohswmjoA9oFrbhRQOha-65" value="" style="line;strokeWidth=1;fillColor=none;align=left;verticalAlign=middle;spacingTop=-1;spacingLeft=3;spacingRight=3;rotatable=0;labelPosition=right;points=[];portConstraint=eastwest;dashed=1;dashPattern=1 1;" vertex="1" parent="mohswmjoA9oFrbhRQOha-66">
          <mxGeometry y="191.93889173060526" width="610" height="11.294117647058822" as="geometry" />
        </mxCell>
        <mxCell id="mohswmjoA9oFrbhRQOha-1" value="Course Requests&#xa;Canvas" style="shape=umlLifeline;perimeter=lifelinePerimeter;container=1;collapsible=0;recursiveResize=0;rounded=0;shadow=0;strokeWidth=1;" vertex="1" parent="1">
          <mxGeometry x="320" y="80" width="100" height="1320" as="geometry" />
        </mxCell>
        <mxCell id="mohswmjoA9oFrbhRQOha-2" value="" style="points=[];perimeter=orthogonalPerimeter;rounded=0;shadow=0;strokeWidth=1;" vertex="1" parent="mohswmjoA9oFrbhRQOha-1">
          <mxGeometry x="45" y="90" width="10" height="630" as="geometry" />
        </mxCell>
        <mxCell id="mohswmjoA9oFrbhRQOha-35" value="" style="points=[];perimeter=orthogonalPerimeter;rounded=0;shadow=0;strokeWidth=1;" vertex="1" parent="mohswmjoA9oFrbhRQOha-1">
          <mxGeometry x="165" y="429.46" width="10" height="40" as="geometry" />
        </mxCell>
        <mxCell id="mohswmjoA9oFrbhRQOha-34" value="Canvas LMS&#xa;API" style="shape=umlLifeline;perimeter=lifelinePerimeter;container=1;collapsible=0;recursiveResize=0;rounded=0;shadow=0;strokeWidth=1;" vertex="1" parent="1">
          <mxGeometry x="800" y="80" width="100" height="1320" as="geometry" />
        </mxCell>
        <mxCell id="mohswmjoA9oFrbhRQOha-64" value="" style="points=[];perimeter=orthogonalPerimeter;rounded=0;shadow=0;strokeWidth=1;" vertex="1" parent="mohswmjoA9oFrbhRQOha-34">
          <mxGeometry x="45" y="710" width="10" height="530" as="geometry" />
        </mxCell>
        <mxCell id="3nuBFxr9cyL0pnOWT2aG-8" value="request" style="verticalAlign=bottom;endArrow=block;shadow=0;strokeWidth=1;" parent="1" source="3nuBFxr9cyL0pnOWT2aG-2" target="mohswmjoA9oFrbhRQOha-7" edge="1">
          <mxGeometry relative="1" as="geometry">
            <mxPoint x="240" y="160" as="sourcePoint" />
            <Array as="points">
              <mxPoint x="180" y="160" />
            </Array>
          </mxGeometry>
        </mxCell>
        <mxCell id="mohswmjoA9oFrbhRQOha-21" value="session data" style="verticalAlign=bottom;endArrow=block;shadow=0;strokeWidth=1;" edge="1" parent="1">
          <mxGeometry x="-0.6857" relative="1" as="geometry">
            <mxPoint x="135" y="670" as="sourcePoint" />
            <mxPoint x="485" y="670" as="targetPoint" />
            <mxPoint as="offset" />
          </mxGeometry>
        </mxCell>
        <mxCell id="mohswmjoA9oFrbhRQOha-6" value="Course Requests&#xa;Home" style="shape=umlLifeline;perimeter=lifelinePerimeter;container=1;collapsible=0;recursiveResize=0;rounded=0;shadow=0;strokeWidth=1;" vertex="1" parent="1">
          <mxGeometry x="200" y="80" width="100" height="1320" as="geometry" />
        </mxCell>
        <mxCell id="mohswmjoA9oFrbhRQOha-7" value="" style="points=[];perimeter=orthogonalPerimeter;rounded=0;shadow=0;strokeWidth=1;" vertex="1" parent="mohswmjoA9oFrbhRQOha-6">
          <mxGeometry x="45" y="80" width="10" height="10" as="geometry" />
        </mxCell>
        <mxCell id="mohswmjoA9oFrbhRQOha-56" value="Course Requests&#xa;Login" style="shape=umlLifeline;perimeter=lifelinePerimeter;container=1;collapsible=0;recursiveResize=0;rounded=0;shadow=0;strokeWidth=1;" vertex="1" parent="1">
          <mxGeometry x="440" y="80" width="100" height="1320" as="geometry" />
        </mxCell>
        <mxCell id="mohswmjoA9oFrbhRQOha-57" value="" style="points=[];perimeter=orthogonalPerimeter;rounded=0;shadow=0;strokeWidth=1;" vertex="1" parent="mohswmjoA9oFrbhRQOha-56">
          <mxGeometry x="45" y="100" width="10" height="580" as="geometry" />
        </mxCell>
        <mxCell id="3nuBFxr9cyL0pnOWT2aG-5" value="CMU Login" style="shape=umlLifeline;perimeter=lifelinePerimeter;container=1;collapsible=0;recursiveResize=0;rounded=0;shadow=0;strokeWidth=1;" parent="1" vertex="1">
          <mxGeometry x="560" y="80" width="100" height="1320" as="geometry" />
        </mxCell>
        <mxCell id="3nuBFxr9cyL0pnOWT2aG-6" value="" style="points=[];perimeter=orthogonalPerimeter;rounded=0;shadow=0;strokeWidth=1;" parent="3nuBFxr9cyL0pnOWT2aG-5" vertex="1">
          <mxGeometry x="45" y="150" width="10" height="410" as="geometry" />
        </mxCell>
        <mxCell id="mohswmjoA9oFrbhRQOha-17" value="login form" style="verticalAlign=bottom;endArrow=block;shadow=0;strokeWidth=1;dashed=1;" edge="1" parent="3nuBFxr9cyL0pnOWT2aG-5">
          <mxGeometry x="-0.766" relative="1" as="geometry">
            <mxPoint x="45" y="179.46" as="sourcePoint" />
            <mxPoint x="-425" y="179.46000000000004" as="targetPoint" />
            <mxPoint as="offset" />
          </mxGeometry>
        </mxCell>
        <mxCell id="3nuBFxr9cyL0pnOWT2aG-1" value="User Browser" style="shape=umlLifeline;perimeter=lifelinePerimeter;container=1;collapsible=0;recursiveResize=0;rounded=0;shadow=0;strokeWidth=1;" parent="1" vertex="1">
          <mxGeometry x="80" y="80" width="100" height="1320" as="geometry" />
        </mxCell>
        <mxCell id="3nuBFxr9cyL0pnOWT2aG-3" value="" style="verticalAlign=bottom;startArrow=oval;endArrow=block;startSize=8;shadow=0;strokeWidth=1;" parent="3nuBFxr9cyL0pnOWT2aG-1" target="3nuBFxr9cyL0pnOWT2aG-2" edge="1">
          <mxGeometry relative="1" as="geometry">
            <mxPoint x="10" y="70" as="sourcePoint" />
            <Array as="points">
              <mxPoint x="25" y="70" />
            </Array>
          </mxGeometry>
        </mxCell>
        <mxCell id="mohswmjoA9oFrbhRQOha-49" value="" style="curved=1;endArrow=classic;html=1;rounded=0;" edge="1" parent="3nuBFxr9cyL0pnOWT2aG-1">
          <mxGeometry width="50" height="50" relative="1" as="geometry">
            <mxPoint x="45" y="290" as="sourcePoint" />
            <mxPoint x="45" y="320" as="targetPoint" />
            <Array as="points">
              <mxPoint x="20" y="290" />
              <mxPoint x="20" y="320.00000000000006" />
            </Array>
          </mxGeometry>
        </mxCell>
        <mxCell id="mohswmjoA9oFrbhRQOha-50" value="code" style="edgeLabel;html=1;align=center;verticalAlign=middle;resizable=0;points=[];" vertex="1" connectable="0" parent="mohswmjoA9oFrbhRQOha-49">
          <mxGeometry x="-0.4938" y="2" relative="1" as="geometry">
            <mxPoint x="-20" y="13" as="offset" />
          </mxGeometry>
        </mxCell>
        <mxCell id="3nuBFxr9cyL0pnOWT2aG-2" value="" style="points=[];perimeter=orthogonalPerimeter;rounded=0;shadow=0;strokeWidth=1;" parent="3nuBFxr9cyL0pnOWT2aG-1" vertex="1">
          <mxGeometry x="45" y="70" width="10" height="1220" as="geometry" />
        </mxCell>
        <mxCell id="mohswmjoA9oFrbhRQOha-18" value="" style="curved=1;endArrow=classic;html=1;rounded=0;" edge="1" parent="3nuBFxr9cyL0pnOWT2aG-1">
          <mxGeometry width="50" height="50" relative="1" as="geometry">
            <mxPoint x="45" y="188.92000000000007" as="sourcePoint" />
            <mxPoint x="45" y="218.92000000000007" as="targetPoint" />
            <Array as="points">
              <mxPoint x="20" y="188.92000000000002" />
              <mxPoint x="20" y="218.92000000000002" />
            </Array>
          </mxGeometry>
        </mxCell>
        <mxCell id="mohswmjoA9oFrbhRQOha-23" value="&lt;div&gt;username,&lt;/div&gt;&lt;div&gt;password&lt;/div&gt;" style="edgeLabel;html=1;align=center;verticalAlign=middle;resizable=0;points=[];" vertex="1" connectable="0" parent="mohswmjoA9oFrbhRQOha-18">
          <mxGeometry x="-0.4938" y="2" relative="1" as="geometry">
            <mxPoint x="-35" y="13" as="offset" />
          </mxGeometry>
        </mxCell>
        <mxCell id="mohswmjoA9oFrbhRQOha-76" value="" style="curved=1;endArrow=classic;html=1;rounded=0;" edge="1" parent="3nuBFxr9cyL0pnOWT2aG-1">
          <mxGeometry width="50" height="50" relative="1" as="geometry">
            <mxPoint x="45" y="760" as="sourcePoint" />
            <mxPoint x="45" y="790" as="targetPoint" />
            <Array as="points">
              <mxPoint x="20" y="760" />
              <mxPoint x="20" y="790" />
            </Array>
          </mxGeometry>
        </mxCell>
        <mxCell id="mohswmjoA9oFrbhRQOha-77" value="&lt;div&gt;New&lt;/div&gt;&lt;div&gt;Course&lt;/div&gt;" style="edgeLabel;html=1;align=center;verticalAlign=middle;resizable=0;points=[];" vertex="1" connectable="0" parent="mohswmjoA9oFrbhRQOha-76">
          <mxGeometry x="-0.4938" y="2" relative="1" as="geometry">
            <mxPoint x="-25" y="13" as="offset" />
          </mxGeometry>
        </mxCell>
        <mxCell id="mohswmjoA9oFrbhRQOha-88" value="" style="curved=1;endArrow=classic;html=1;rounded=0;" edge="1" parent="3nuBFxr9cyL0pnOWT2aG-1">
          <mxGeometry width="50" height="50" relative="1" as="geometry">
            <mxPoint x="45" y="860" as="sourcePoint" />
            <mxPoint x="45" y="890" as="targetPoint" />
            <Array as="points">
              <mxPoint x="20" y="860" />
              <mxPoint x="20" y="890" />
            </Array>
          </mxGeometry>
        </mxCell>
        <mxCell id="mohswmjoA9oFrbhRQOha-89" value="&lt;div&gt;Select&lt;/div&gt;&lt;div&gt;Course&lt;/div&gt;" style="edgeLabel;html=1;align=center;verticalAlign=middle;resizable=0;points=[];" vertex="1" connectable="0" parent="mohswmjoA9oFrbhRQOha-88">
          <mxGeometry x="-0.4938" y="2" relative="1" as="geometry">
            <mxPoint x="-25" y="13" as="offset" />
          </mxGeometry>
        </mxCell>
        <mxCell id="mohswmjoA9oFrbhRQOha-99" value="" style="curved=1;endArrow=classic;html=1;rounded=0;" edge="1" parent="3nuBFxr9cyL0pnOWT2aG-1">
          <mxGeometry width="50" height="50" relative="1" as="geometry">
            <mxPoint x="45" y="960" as="sourcePoint" />
            <mxPoint x="45" y="990" as="targetPoint" />
            <Array as="points">
              <mxPoint x="20" y="960" />
              <mxPoint x="20" y="990" />
            </Array>
          </mxGeometry>
        </mxCell>
        <mxCell id="mohswmjoA9oFrbhRQOha-100" value="&lt;div&gt;Course&lt;/div&gt;&lt;div&gt;Details&lt;br&gt;&lt;/div&gt;" style="edgeLabel;html=1;align=center;verticalAlign=middle;resizable=0;points=[];" vertex="1" connectable="0" parent="mohswmjoA9oFrbhRQOha-99">
          <mxGeometry x="-0.4938" y="2" relative="1" as="geometry">
            <mxPoint x="-25" y="13" as="offset" />
          </mxGeometry>
        </mxCell>
        <mxCell id="mohswmjoA9oFrbhRQOha-19" value="request" style="verticalAlign=bottom;endArrow=block;shadow=0;strokeWidth=1;" edge="1" parent="1">
          <mxGeometry x="-0.766" relative="1" as="geometry">
            <mxPoint x="135" y="310" as="sourcePoint" />
            <mxPoint x="605" y="310" as="targetPoint" />
            <Array as="points">
              <mxPoint x="170" y="310" />
            </Array>
            <mxPoint as="offset" />
          </mxGeometry>
        </mxCell>
        <mxCell id="mohswmjoA9oFrbhRQOha-63" value="request" style="verticalAlign=bottom;endArrow=block;shadow=0;strokeWidth=1;" edge="1" parent="1">
          <mxGeometry relative="1" as="geometry">
            <mxPoint x="375" y="180" as="sourcePoint" />
            <mxPoint x="485" y="180" as="targetPoint" />
            <Array as="points">
              <mxPoint x="420" y="180" />
            </Array>
          </mxGeometry>
        </mxCell>
        <mxCell id="mohswmjoA9oFrbhRQOha-59" value="redirect" style="verticalAlign=bottom;endArrow=block;shadow=0;strokeWidth=1;" edge="1" parent="1" source="mohswmjoA9oFrbhRQOha-7" target="mohswmjoA9oFrbhRQOha-2">
          <mxGeometry relative="1" as="geometry">
            <mxPoint x="255" y="170" as="sourcePoint" />
            <mxPoint x="365.99999999999955" y="170" as="targetPoint" />
            <Array as="points">
              <mxPoint x="300" y="170" />
            </Array>
          </mxGeometry>
        </mxCell>
        <mxCell id="mohswmjoA9oFrbhRQOha-9" value="redirect" style="verticalAlign=bottom;endArrow=block;shadow=0;strokeWidth=1;" edge="1" parent="1">
          <mxGeometry relative="1" as="geometry">
            <mxPoint x="495" y="230" as="sourcePoint" />
            <mxPoint x="605" y="230" as="targetPoint" />
            <Array as="points">
              <mxPoint x="530" y="230" />
            </Array>
          </mxGeometry>
        </mxCell>
        <mxCell id="mohswmjoA9oFrbhRQOha-40" value="request" style="verticalAlign=bottom;endArrow=block;shadow=0;strokeWidth=1;" edge="1" parent="1" target="mohswmjoA9oFrbhRQOha-68">
          <mxGeometry x="-0.5217" relative="1" as="geometry">
            <mxPoint x="495" y="680" as="sourcePoint" />
            <mxPoint x="720" y="680" as="targetPoint" />
            <mxPoint as="offset" />
          </mxGeometry>
        </mxCell>
        <mxCell id="mohswmjoA9oFrbhRQOha-51" value="request" style="verticalAlign=bottom;endArrow=block;shadow=0;strokeWidth=1;" edge="1" parent="1">
          <mxGeometry x="-0.766" relative="1" as="geometry">
            <mxPoint x="135" y="410" as="sourcePoint" />
            <mxPoint x="605" y="410" as="targetPoint" />
            <mxPoint as="offset" />
          </mxGeometry>
        </mxCell>
        <mxCell id="mohswmjoA9oFrbhRQOha-46" value="2fa form" style="verticalAlign=bottom;endArrow=block;shadow=0;strokeWidth=1;dashed=1;" edge="1" parent="1">
          <mxGeometry x="-0.766" relative="1" as="geometry">
            <mxPoint x="605" y="360" as="sourcePoint" />
            <mxPoint x="135" y="360" as="targetPoint" />
            <mxPoint as="offset" />
          </mxGeometry>
        </mxCell>
        <mxCell id="mohswmjoA9oFrbhRQOha-52" value="2fa form" style="verticalAlign=bottom;endArrow=block;shadow=0;strokeWidth=1;dashed=1;" edge="1" parent="1">
          <mxGeometry x="-0.766" relative="1" as="geometry">
            <mxPoint x="605" y="460" as="sourcePoint" />
            <mxPoint x="135" y="460" as="targetPoint" />
            <mxPoint as="offset" />
          </mxGeometry>
        </mxCell>
        <mxCell id="mohswmjoA9oFrbhRQOha-54" value="2fa app confirmation" style="verticalAlign=bottom;endArrow=block;shadow=0;strokeWidth=1;dashed=1;" edge="1" parent="1">
          <mxGeometry x="-0.766" relative="1" as="geometry">
            <mxPoint x="605" y="490" as="sourcePoint" />
            <mxPoint x="135" y="490" as="targetPoint" />
            <mxPoint as="offset" />
          </mxGeometry>
        </mxCell>
        <mxCell id="mohswmjoA9oFrbhRQOha-26" value="CMU LDAP" style="shape=umlLifeline;perimeter=lifelinePerimeter;container=1;collapsible=0;recursiveResize=0;rounded=0;shadow=0;strokeWidth=1;" vertex="1" parent="1">
          <mxGeometry x="680" y="80" width="100" height="1320" as="geometry" />
        </mxCell>
        <mxCell id="mohswmjoA9oFrbhRQOha-31" value="request" style="verticalAlign=bottom;endArrow=block;shadow=0;strokeWidth=1;" edge="1" parent="mohswmjoA9oFrbhRQOha-26" target="mohswmjoA9oFrbhRQOha-27">
          <mxGeometry relative="1" as="geometry">
            <mxPoint x="-65" y="519.9999999999999" as="sourcePoint" />
            <mxPoint x="44.99999999999977" y="520" as="targetPoint" />
          </mxGeometry>
        </mxCell>
        <mxCell id="mohswmjoA9oFrbhRQOha-27" value="" style="points=[];perimeter=orthogonalPerimeter;rounded=0;shadow=0;strokeWidth=1;" vertex="1" parent="mohswmjoA9oFrbhRQOha-26">
          <mxGeometry x="45" y="520.69" width="10" height="30" as="geometry" />
        </mxCell>
        <mxCell id="mohswmjoA9oFrbhRQOha-32" value="user attributes" style="verticalAlign=bottom;endArrow=block;shadow=0;strokeWidth=1;dashed=1;" edge="1" parent="mohswmjoA9oFrbhRQOha-26" source="mohswmjoA9oFrbhRQOha-27">
          <mxGeometry relative="1" as="geometry">
            <mxPoint x="45" y="550" as="sourcePoint" />
            <mxPoint x="-65" y="550" as="targetPoint" />
          </mxGeometry>
        </mxCell>
        <mxCell id="mohswmjoA9oFrbhRQOha-67" value="2fa existing session" style="verticalAlign=bottom;endArrow=block;shadow=0;strokeWidth=1;dashed=1;" edge="1" parent="1">
          <mxGeometry x="-0.766" relative="1" as="geometry">
            <mxPoint x="605" y="550" as="sourcePoint" />
            <mxPoint x="135" y="550" as="targetPoint" />
            <mxPoint as="offset" />
          </mxGeometry>
        </mxCell>
        <mxCell id="mohswmjoA9oFrbhRQOha-43" value="session data" style="verticalAlign=bottom;endArrow=block;shadow=0;strokeWidth=1;dashed=1;" edge="1" parent="1" source="3nuBFxr9cyL0pnOWT2aG-6">
          <mxGeometry x="-0.766" relative="1" as="geometry">
            <mxPoint x="605" y="640" as="sourcePoint" />
            <mxPoint x="135" y="640" as="targetPoint" />
            <mxPoint as="offset" />
          </mxGeometry>
        </mxCell>
        <mxCell id="mohswmjoA9oFrbhRQOha-68" value="" style="points=[];perimeter=orthogonalPerimeter;rounded=0;shadow=0;strokeWidth=1;" vertex="1" parent="1">
          <mxGeometry x="725" y="680" width="10" height="30" as="geometry" />
        </mxCell>
        <mxCell id="mohswmjoA9oFrbhRQOha-70" value="response" style="verticalAlign=bottom;endArrow=block;shadow=0;strokeWidth=1;entryX=0;entryY=0.000;entryDx=0;entryDy=0;entryPerimeter=0;dashed=1;" edge="1" parent="1">
          <mxGeometry relative="1" as="geometry">
            <mxPoint x="485" y="760" as="sourcePoint" />
            <mxPoint x="375" y="760" as="targetPoint" />
          </mxGeometry>
        </mxCell>
        <mxCell id="mohswmjoA9oFrbhRQOha-72" value="request" style="verticalAlign=bottom;endArrow=block;shadow=0;strokeWidth=1;" edge="1" parent="1" target="mohswmjoA9oFrbhRQOha-64">
          <mxGeometry x="-0.766" relative="1" as="geometry">
            <mxPoint x="375" y="789.46" as="sourcePoint" />
            <mxPoint x="485" y="789.46" as="targetPoint" />
            <mxPoint as="offset" />
          </mxGeometry>
        </mxCell>
        <mxCell id="mohswmjoA9oFrbhRQOha-37" value="canvas courses" style="verticalAlign=bottom;endArrow=open;shadow=0;strokeWidth=1;dashed=1;endFill=0;" edge="1" parent="1">
          <mxGeometry x="-0.8451" relative="1" as="geometry">
            <mxPoint x="845" y="830" as="sourcePoint" />
            <mxPoint x="135" y="830" as="targetPoint" />
            <mxPoint as="offset" />
          </mxGeometry>
        </mxCell>
        <mxCell id="mohswmjoA9oFrbhRQOha-75" value="response" style="verticalAlign=bottom;endArrow=block;shadow=0;strokeWidth=1;dashed=1;" edge="1" parent="1">
          <mxGeometry x="-0.5217" relative="1" as="geometry">
            <mxPoint x="365" y="800" as="sourcePoint" />
            <mxPoint x="135" y="800" as="targetPoint" />
            <mxPoint as="offset" />
          </mxGeometry>
        </mxCell>
        <mxCell id="mohswmjoA9oFrbhRQOha-78" value="request" style="verticalAlign=bottom;endArrow=block;shadow=0;strokeWidth=1;" edge="1" parent="1" target="mohswmjoA9oFrbhRQOha-80">
          <mxGeometry x="-0.8675" relative="1" as="geometry">
            <mxPoint x="135" y="880" as="sourcePoint" />
            <mxPoint x="910" y="880" as="targetPoint" />
            <mxPoint as="offset" />
          </mxGeometry>
        </mxCell>
        <mxCell id="mohswmjoA9oFrbhRQOha-79" value="Course Requests&#xa;New Canvas" style="shape=umlLifeline;perimeter=lifelinePerimeter;container=1;collapsible=0;recursiveResize=0;rounded=0;shadow=0;strokeWidth=1;" vertex="1" parent="1">
          <mxGeometry x="920" y="80" width="100" height="1320" as="geometry" />
        </mxCell>
        <mxCell id="mohswmjoA9oFrbhRQOha-80" value="" style="points=[];perimeter=orthogonalPerimeter;rounded=0;shadow=0;strokeWidth=1;" vertex="1" parent="mohswmjoA9oFrbhRQOha-79">
          <mxGeometry x="45" y="800" width="10" height="490" as="geometry" />
        </mxCell>
        <mxCell id="mohswmjoA9oFrbhRQOha-81" value="response" style="verticalAlign=bottom;endArrow=block;shadow=0;strokeWidth=1;dashed=1;" edge="1" parent="1">
          <mxGeometry x="-0.8675" relative="1" as="geometry">
            <mxPoint x="965" y="930" as="sourcePoint" />
            <mxPoint x="135" y="930" as="targetPoint" />
            <mxPoint as="offset" />
          </mxGeometry>
        </mxCell>
        <mxCell id="mohswmjoA9oFrbhRQOha-82" value="Course Service&#xa;API" style="shape=umlLifeline;perimeter=lifelinePerimeter;container=1;collapsible=0;recursiveResize=0;rounded=0;shadow=0;strokeWidth=1;" vertex="1" parent="1">
          <mxGeometry x="1040" y="80" width="100" height="1320" as="geometry" />
        </mxCell>
        <mxCell id="mohswmjoA9oFrbhRQOha-83" value="" style="points=[];perimeter=orthogonalPerimeter;rounded=0;shadow=0;strokeWidth=1;" vertex="1" parent="mohswmjoA9oFrbhRQOha-82">
          <mxGeometry x="45" y="810" width="10" height="130" as="geometry" />
        </mxCell>
        <mxCell id="mohswmjoA9oFrbhRQOha-85" value="response" style="verticalAlign=bottom;endArrow=block;shadow=0;strokeWidth=1;dashed=1;" edge="1" parent="1">
          <mxGeometry x="-0.5217" relative="1" as="geometry">
            <mxPoint x="725" y="710" as="sourcePoint" />
            <mxPoint x="495" y="710" as="targetPoint" />
            <mxPoint as="offset" />
          </mxGeometry>
        </mxCell>
        <mxCell id="mohswmjoA9oFrbhRQOha-86" value="request" style="html=1;verticalAlign=bottom;endArrow=block;rounded=0;" edge="1" parent="1" target="mohswmjoA9oFrbhRQOha-83">
          <mxGeometry width="80" relative="1" as="geometry">
            <mxPoint x="975" y="890" as="sourcePoint" />
            <mxPoint x="1085" y="890" as="targetPoint" />
          </mxGeometry>
        </mxCell>
        <mxCell id="mohswmjoA9oFrbhRQOha-87" value="sis courses" style="verticalAlign=bottom;endArrow=block;shadow=0;strokeWidth=1;entryX=0;entryY=0.000;entryDx=0;entryDy=0;entryPerimeter=0;dashed=1;" edge="1" parent="1">
          <mxGeometry relative="1" as="geometry">
            <mxPoint x="1084.9999999999998" y="920" as="sourcePoint" />
            <mxPoint x="974.9999999999998" y="920" as="targetPoint" />
          </mxGeometry>
        </mxCell>
        <mxCell id="mohswmjoA9oFrbhRQOha-90" value="request" style="verticalAlign=bottom;endArrow=block;shadow=0;strokeWidth=1;" edge="1" parent="1" target="mohswmjoA9oFrbhRQOha-80">
          <mxGeometry x="-0.8675" relative="1" as="geometry">
            <mxPoint x="135" y="980" as="sourcePoint" />
            <mxPoint x="965" y="980" as="targetPoint" />
            <mxPoint as="offset" />
          </mxGeometry>
        </mxCell>
        <mxCell id="mohswmjoA9oFrbhRQOha-91" value="request" style="html=1;verticalAlign=bottom;endArrow=block;rounded=0;" edge="1" parent="1">
          <mxGeometry width="80" relative="1" as="geometry">
            <mxPoint x="975" y="990" as="sourcePoint" />
            <mxPoint x="1085" y="990" as="targetPoint" />
          </mxGeometry>
        </mxCell>
        <mxCell id="mohswmjoA9oFrbhRQOha-92" value="course details" style="verticalAlign=bottom;endArrow=block;shadow=0;strokeWidth=1;entryX=0;entryY=0.000;entryDx=0;entryDy=0;entryPerimeter=0;dashed=1;" edge="1" parent="1">
          <mxGeometry relative="1" as="geometry">
            <mxPoint x="1084.9999999999998" y="1020" as="sourcePoint" />
            <mxPoint x="974.9999999999998" y="1020" as="targetPoint" />
          </mxGeometry>
        </mxCell>
        <mxCell id="mohswmjoA9oFrbhRQOha-93" value="response" style="verticalAlign=bottom;endArrow=block;shadow=0;strokeWidth=1;dashed=1;" edge="1" parent="1" source="mohswmjoA9oFrbhRQOha-80">
          <mxGeometry x="-0.8675" relative="1" as="geometry">
            <mxPoint x="965" y="1030" as="sourcePoint" />
            <mxPoint x="135" y="1030" as="targetPoint" />
            <mxPoint as="offset" />
          </mxGeometry>
        </mxCell>
        <mxCell id="mohswmjoA9oFrbhRQOha-101" value="request" style="verticalAlign=bottom;endArrow=block;shadow=0;strokeWidth=1;" edge="1" parent="1">
          <mxGeometry x="-0.8675" relative="1" as="geometry">
            <mxPoint x="135" y="1080" as="sourcePoint" />
            <mxPoint x="965" y="1080" as="targetPoint" />
            <mxPoint as="offset" />
          </mxGeometry>
        </mxCell>
        <mxCell id="mohswmjoA9oFrbhRQOha-102" value="request" style="html=1;verticalAlign=bottom;endArrow=block;rounded=0;" edge="1" parent="1" target="mohswmjoA9oFrbhRQOha-64">
          <mxGeometry width="80" relative="1" as="geometry">
            <mxPoint x="965" y="1110" as="sourcePoint" />
            <mxPoint x="855" y="1110" as="targetPoint" />
          </mxGeometry>
        </mxCell>
        <mxCell id="mohswmjoA9oFrbhRQOha-103" value="creation response" style="verticalAlign=bottom;endArrow=block;shadow=0;strokeWidth=1;entryX=0;entryY=0.000;entryDx=0;entryDy=0;entryPerimeter=0;dashed=1;" edge="1" parent="1">
          <mxGeometry relative="1" as="geometry">
            <mxPoint x="854.9999999999998" y="1140" as="sourcePoint" />
            <mxPoint x="964.9999999999998" y="1140" as="targetPoint" />
          </mxGeometry>
        </mxCell>
        <mxCell id="mohswmjoA9oFrbhRQOha-105" value="request" style="html=1;verticalAlign=bottom;endArrow=block;rounded=0;" edge="1" parent="1">
          <mxGeometry width="80" relative="1" as="geometry">
            <mxPoint x="965" y="1190" as="sourcePoint" />
            <mxPoint x="855" y="1190" as="targetPoint" />
          </mxGeometry>
        </mxCell>
        <mxCell id="mohswmjoA9oFrbhRQOha-106" value="enrollment&#xa;response" style="verticalAlign=bottom;endArrow=block;shadow=0;strokeWidth=1;entryX=0;entryY=0.000;entryDx=0;entryDy=0;entryPerimeter=0;dashed=1;" edge="1" parent="1">
          <mxGeometry relative="1" as="geometry">
            <mxPoint x="854.9999999999998" y="1220" as="sourcePoint" />
            <mxPoint x="964.9999999999998" y="1220" as="targetPoint" />
          </mxGeometry>
        </mxCell>
        <mxCell id="mohswmjoA9oFrbhRQOha-108" value="request" style="html=1;verticalAlign=bottom;endArrow=block;rounded=0;" edge="1" parent="1">
          <mxGeometry width="80" relative="1" as="geometry">
            <mxPoint x="965" y="1290" as="sourcePoint" />
            <mxPoint x="855" y="1290" as="targetPoint" />
          </mxGeometry>
        </mxCell>
        <mxCell id="mohswmjoA9oFrbhRQOha-109" value="section creation&#xa;response" style="verticalAlign=bottom;endArrow=block;shadow=0;strokeWidth=1;entryX=0;entryY=0.000;entryDx=0;entryDy=0;entryPerimeter=0;dashed=1;" edge="1" parent="1">
          <mxGeometry relative="1" as="geometry">
            <mxPoint x="854.9999999999998" y="1320" as="sourcePoint" />
            <mxPoint x="964.9999999999998" y="1320" as="targetPoint" />
          </mxGeometry>
        </mxCell>
        <mxCell id="mohswmjoA9oFrbhRQOha-110" value="response" style="verticalAlign=bottom;endArrow=block;shadow=0;strokeWidth=1;dashed=1;" edge="1" parent="1">
          <mxGeometry x="-0.8675" relative="1" as="geometry">
            <mxPoint x="965" y="1370" as="sourcePoint" />
            <mxPoint x="135" y="1370" as="targetPoint" />
            <mxPoint as="offset" />
          </mxGeometry>
        </mxCell>
      </root>
    </mxGraphModel>
  </diagram>
</mxfile>
